Coordinates
version=1
nRows=15
nColumns=45
inDegrees=yes

Units are S.I. units (second, meters, Newtons, ...)
Angles are in degrees.

endheader
time	pelvis_tilt	pelvis_list	pelvis_rotation	pelvis_tx	pelvis_ty	pelvis_tz	hip_flexion_r	hip_adduction_r	hip_rotation_r	knee_angle_r	knee_adduction_r	knee_angle_r_beta	ankle_angle_r	subtalar_angle_r	mtp_angle_r	hip_flexion_l	hip_adduction_l	hip_rotation_l	knee_angle_l	knee_adduction_l	knee_angle_l_beta	ankle_angle_l	subtalar_angle_l	mtp_angle_l	lumbar_extension	lumbar_bending	lumbar_rotation	thoracic_extension	thoracic_bending	thoracic_rotation	arm_flex_r	arm_add_r	arm_rot_r	elbow_flex_r	pro_sup_r	wrist_flex_r	wrist_dev_r	arm_flex_l	arm_add_l	arm_rot_l	elbow_flex_l	pro_sup_l	wrist_flex_l	wrist_dev_l
     29.52250000	     -0.83446345	     -7.34007480	      1.83416802	      0.72862942	      0.91076043	      0.50384516	     28.25289731	      7.39571590	     -6.75030108	     30.59548141	      5.06300000	      0.53399189	      6.35340768	     -8.36305987	      1.92695976	     -6.29955704	    -13.47700337	     -7.00091358	     53.80983030	      5.06300000	      0.93915871	    -12.16395567	    -17.13397035	    -11.37877823	     -3.89120182	      9.76499207	     -6.39559714	      0.00000000	      0.00000000	      0.00000000	     -5.88865977	    -12.22934218	     -4.72490686	     22.31672568	     89.99911678	      0.00000000	      0.00000000	      9.11793311	    -17.28492134	      6.76605328	     51.24988604	     89.99945425	      0.00000000	      0.00000000
     29.53314286	     -0.66053347	     -7.70439911	      2.18026622	      0.72905391	      0.91288467	      0.50532208	     27.09886482	      7.96098506	     -6.63491635	     30.68976325	      5.06300000	      0.53563742	      7.37199081	     -8.69568597	      2.31985296	     -3.88311153	    -13.99079330	     -5.41017923	     57.57878874	      5.06300000	      1.00493944	    -12.72088590	    -17.39880488	     -5.06932123	     -4.01444671	     10.03075146	     -6.23058000	      0.00000000	      0.00000000	      0.00000000	     -5.17824221	    -12.03568875	     -4.62888657	     22.50711172	     89.99911678	      0.00000000	      0.00000000	      9.06922477	    -16.87296917	      7.16933811	     50.23616000	     89.99945425	      0.00000000	      0.00000000
     29.54378571	     -0.59451987	     -7.92586798	      2.58120550	      0.72913946	      0.91521969	      0.50627395	     25.94862481	      8.31456213	     -6.61026644	     30.58376606	      5.06300000	      0.53378742	      8.41292453	     -8.78932777	      2.58547355	     -1.28213765	    -14.15132433	     -3.65815735	     60.98655401	      5.06300000	      1.06441617	    -12.68096330	    -17.54325516	     -0.38197472	     -4.02419993	     10.17838691	     -6.16008188	      0.00000000	      0.00000000	      0.00000000	     -4.37581863	    -11.89545942	     -4.48739210	     22.73338666	     89.99911678	      0.00000000	      0.00000000	      9.01111011	    -16.45126351	      7.71147950	     48.99489156	     89.99945425	      0.00000000	      0.00000000
     29.55442857	     -0.67703229	     -7.99229061	      3.01502027	      0.72885745	      0.91769687	      0.50672631	     24.87690460	      8.43546065	     -6.68114690	     30.33352539	      5.06300000	      0.52941989	      9.41336990	     -8.63517317	      2.76291662	      1.50810186	    -13.94283373	     -1.83975128	     64.02089623	      5.06300000	      1.11737543	    -12.12894721	    -17.59956169	      2.59070121	     -3.86338934	     10.20242658	     -6.15417064	      0.00000000	      0.00000000	      0.00000000	     -3.54513812	    -11.80452644	     -4.26523254	     23.05854680	     89.99911678	      0.00000000	      0.00000000	      8.95224200	    -16.00183177	      8.42570355	     47.51515293	     89.99945425	      0.00000000	      0.00000000
     29.56507143	     -0.68811807	     -7.86092792	      3.35031707	      0.72826424	      0.92047623	      0.50714162	     23.64802199	      8.41446887	     -6.59449301	     29.93542550	      5.06300000	      0.52247174	     10.29854640	     -8.51301642	      2.90662513	      4.12339043	    -13.40880604	     -0.25452124	     66.60958728	      5.06300000	      1.16255661	    -11.11340168	    -17.51132601	      3.95109436	     -3.84899047	      9.98089958	     -5.91394667	      0.00000000	      0.00000000	      0.00000000	     -2.77507465	    -11.68312315	     -4.01965854	     23.49730128	     89.99911678	      0.00000000	      0.00000000	      8.93249675	    -15.54911320	      9.03338870	     46.31334522	     89.99945425	      0.00000000	      0.00000000
     29.57571429	     -0.88899466	     -7.72455038	      3.73060556	      0.72765821	      0.92329697	      0.50681998	     22.51465152	      8.25386068	     -6.76926382	     29.36488640	      5.06300000	      0.51251395	     11.13352817	     -7.97926201	      3.00230016	      6.90167795	    -12.69952183	      1.27590369	     68.80233244	      5.06300000	      1.20082723	     -9.65353464	    -17.39492122	      4.55247731	     -3.53752279	      9.84153648	     -5.88729278	      0.00000000	      0.00000000	      0.00000000	     -1.89114759	    -11.75160198	     -3.62678708	     23.94467829	     89.99911678	      0.00000000	      0.00000000	      8.89372179	    -15.02012938	     10.11157826	     44.45665080	     89.99945425	      0.00000000	      0.00000000
     29.58635714	     -0.85137945	     -7.11810013	      3.36516758	      0.72801142	      0.92663647	      0.50766048	     21.04489428	      7.93414126	     -6.14819287	     28.90150892	      5.06300000	      0.50442649	     11.97733619	     -7.34519672	      2.64294213	      8.74960193	    -11.67284372	      1.59047342	     70.12369322	      5.06300000	      1.22388933	     -7.90281675	    -17.07444581	      3.97610824	     -3.58435783	      9.06543432	     -5.08842392	      0.00000000	      0.00000000	      0.00000000	     -1.46636458	    -11.72174793	     -3.57258491	     24.74353757	     89.99911678	      0.00000000	      0.00000000	      8.05079352	    -14.82227652	     10.14644217	     44.52401865	     89.99945425	      0.00000000	      0.00000000
     29.59700000	     -0.94760196	     -7.07774972	      4.08824570	      0.72628459	      0.92971904	      0.50663601	     19.65076004	      7.77617285	     -6.65107289	     27.82543505	      5.06300000	      0.48564546	     12.42299846	     -6.99569202	      3.22676443	     11.51958926	    -10.98725231	      3.07548460	     71.65427770	      5.06300000	      1.25060307	     -5.97947814	    -16.97611508	      3.68534079	     -3.48624759	      9.08876754	     -5.17644773	      0.00000000	      0.00000000	      0.00000000	     -0.33334838	    -11.81838897	     -3.06463493	     25.28153706	     89.99911678	      0.00000000	      0.00000000	      8.42278440	    -14.15147177	     11.30695747	     42.21957261	     89.99945425	      0.00000000	      0.00000000
     29.60764286	     -0.97126295	     -6.49153574	      3.83134388	      0.72562983	      0.93253714	      0.50728827	     18.34956603	      7.38217653	     -6.23196184	     27.37801389	      5.06300000	      0.47783649	     13.04579528	     -6.43957387	      2.90697251	     13.48468208	    -10.03774219	      3.13097064	     72.39569219	      5.06300000	      1.26354319	     -3.88511594	    -16.71502469	      3.04221625	     -3.56117558	      8.32550427	     -4.39616169	      0.00000000	      0.00000000	      0.00000000	      0.22485236	    -11.82491409	     -3.02044869	     26.08738909	     89.99911678	      0.00000000	      0.00000000	      7.73347248	    -13.99672899	     11.32613622	     42.35036926	     89.99945425	      0.00000000	      0.00000000
     29.61828571	     -1.05800022	     -5.94094943	      3.65635720	      0.72420793	      0.93526204	      0.50771246	     17.11811171	      6.96678739	     -5.91530436	     26.78951682	      5.06300000	      0.46756527	     13.49553344	     -5.90032790	      2.68834784	     15.56771920	     -9.14739006	      3.11908439	     72.81492018	      5.06300000	      1.27086010	     -1.91438757	    -16.53085989	      2.46338141	     -3.64901635	      7.64399745	     -3.59518953	      0.00000000	      0.00000000	      0.00000000	      1.04437486	    -11.84559163	     -2.97339720	     26.94564043	     89.99911678	      0.00000000	      0.00000000	      7.12013343	    -13.75461124	     11.38266907	     42.44509179	     89.99945425	      0.00000000	      0.00000000
     29.62892857	     -1.31986153	     -5.64368523	      3.46017071	      0.72396712	      0.93881591	      0.50732512	     15.53804951	      6.76210486	     -5.70759042	     25.25074808	      5.06300000	      0.44070869	     13.56675029	     -5.18812925	      2.96358634	     17.55536977	     -8.54456198	      2.87390458	     72.53345984	      5.06300000	      1.26594769	     -0.40538904	    -16.79132113	      2.14663259	     -3.30130893	      7.39819862	     -3.21136228	      0.00000000	      0.00000000	      0.00000000	      2.07346813	    -12.04043964	     -2.83700009	     27.83045372	     89.99911678	      0.00000000	      0.00000000	      6.31364587	    -13.20322854	     11.81656051	     41.72900051	     89.99945425	      0.00000000	      0.00000000
     29.63957143	     -1.38205403	     -5.27287750	      3.42408200	      0.72213478	      0.94059340	      0.50802509	     14.48137649	      6.50259794	     -5.56805487	     24.91383037	      5.06300000	      0.43482837	     14.00164137	     -4.81070456	      2.73905974	     19.60305371	     -8.01900333	      2.71943268	     72.40971152	      5.06300000	      1.26378788	      1.32123521	    -16.56483892	      1.69140497	     -3.43092979	      6.84427217	     -2.44775303	      0.00000000	      0.00000000	      0.00000000	      2.82167667	    -12.07574476	     -2.78843272	     28.64118917	     89.99911678	      0.00000000	      0.00000000	      5.80183242	    -13.12126013	     11.83442442	     41.79188445	     89.99945425	      0.00000000	      0.00000000
     29.65021429	     -0.92570527	     -5.31459105	      3.15984682	      0.72252316	      0.94465639	      0.50797986	     11.86118425	      6.77857293	     -5.14918433	     22.82866473	      5.06300000	      0.39843536	     13.92587450	     -4.18269605	      3.57028179	     20.50950667	     -8.04900244	      2.19595955	     71.32235174	      5.06300000	      1.24480987	      2.68032415	    -16.56376841	      1.67438835	     -3.80538983	      7.01831750	     -1.64711067	      0.00000000	      0.00000000	      0.00000000	      3.43093814	    -12.60240446	     -1.86316799	     30.10795374	     89.99911678	      0.00000000	      0.00000000	      5.90998484	    -12.35847910	     13.30134465	     38.33202142	     89.99945425	      0.00000000	      0.00000000
     29.66085714	     -1.20658623	     -5.01632670	      2.78235634	      0.72156651	      0.94659519	      0.50829262	     10.73458092	      6.54879958	     -4.90993080	     21.98908083	      5.06300000	      0.38378186	     14.07757622	     -3.42253022	      3.33175204	     22.30487540	     -7.69029065	      1.55623238	     70.18351309	      5.06300000	      1.22493338	      3.79419068	    -16.66142252	      1.58331785	     -3.57033076	      6.67200825	     -0.94172007	      0.00000000	      0.00000000	      0.00000000	      4.28783925	    -12.80163376	     -1.76982237	     31.08381765	     89.99911678	      0.00000000	      0.00000000	      4.96142579	    -12.16969724	     13.56023161	     38.22559430	     89.99945425	      0.00000000	      0.00000000
     29.67150000	     -0.95796150	     -4.63276655	      2.02761809	      0.72056591	      0.94910545	      0.50918943	      9.01005459	      6.36807200	     -4.02090879	     21.05264104	      5.06300000	      0.36743790	     14.09142510	     -3.07751118	      3.25490744	     23.21830036	     -7.52894628	      0.38460086	     68.53581776	      5.06300000	      1.19617568	      4.84329780	    -16.53793194	      1.65088550	     -4.04519106	      6.23908097	      0.40283368	      0.00000000	      0.00000000	      0.00000000	      4.90304521	    -13.21730810	     -1.19290519	     32.73101608	     89.99911678	      0.00000000	      0.00000000	      4.55621376	    -11.89526671	     14.18397192	     37.25797175	     89.99945425	      0.00000000	      0.00000000
